# Blender 4.3.2
# www.blender.org
mtllib ladder.mtl
o BottomHole
v -1.499251 0.301329 0.603900
v 1.399708 0.293438 0.603981
v 1.399708 0.297996 -2.996569
v -1.498961 0.307111 -2.996569
v -1.680252 0.300806 -3.200357
v 1.595691 0.289867 -3.184907
v 1.592716 0.289867 0.812766
v -1.680748 0.311744 0.822217
v -1.491702 0.024279 0.606932
v 1.407258 0.016389 0.607013
v 1.407258 0.020946 -2.993537
v -1.491411 0.030062 -2.993537
v -1.680299 -0.283886 -3.197325
v 1.595644 -0.294825 -3.181875
v 1.592669 -0.294825 0.815798
v -1.680795 -0.272948 0.825249
vn 1.0000 -0.0001 0.0007
vn -0.9996 -0.0272 -0.0000
vn -0.0000 0.0109 0.9999
vn -0.0000 -0.0109 -0.9999
vn 0.9996 0.0272 0.0001
vn 0.0029 0.0052 1.0000
vn -1.0000 0.0001 -0.0001
vn 0.0047 -0.0052 -1.0000
vn 0.0029 1.0000 0.0014
vn -0.0050 -1.0000 0.0014
vn 0.0033 0.9993 -0.0367
vn 0.0300 0.9995 0.0006
vn 0.0113 0.9999 -0.0007
vn 0.0048 0.9999 -0.0162
s 1
usemtl dark
f 9//9 10//9 11//9 12//9
usemtl mortar
f 7//1 15//1 14//1 6//1
f 3//2 11//2 10//2 2//2
f 4//3 12//3 11//3 3//3
f 2//4 10//4 9//4 1//4
f 1//5 9//5 12//5 4//5
f 8//6 16//6 15//6 7//6
f 5//7 13//7 16//7 8//7
f 6//8 14//8 13//8 5//8
f 13//10 14//10 15//10 16//10
f 3//11 6//11 5//11 4//11
f 2//12 7//12 6//12 3//12
f 4//13 5//13 8//13 1//13
f 1//14 8//14 7//14 2//14
o Ladder
v -0.582037 0.000000 0.000000
v -0.482037 0.000000 0.000000
v -0.482037 9.659258 2.588187
v -0.582037 9.659258 2.588187
v 0.400000 0.000000 0.000000
v 0.500000 0.000000 0.000000
v 0.500000 9.659258 2.588187
v 0.400000 9.659258 2.588187
v -0.482037 0.805670 0.215879
v 0.400000 0.805670 0.215879
v 0.400000 0.950559 0.254701
v -0.482037 0.950559 0.254701
v -0.482037 1.683784 0.451169
v 0.400000 1.683784 0.451169
v 0.400000 1.828673 0.489992
v -0.482037 1.828673 0.489992
v -0.482037 2.561899 0.686459
v 0.400000 2.561899 0.686459
v 0.400000 2.706788 0.725282
v -0.482037 2.706788 0.725282
v -0.482037 3.440013 0.921749
v 0.400000 3.440013 0.921749
v 0.400000 3.584902 0.960572
v -0.482037 3.584902 0.960572
v -0.482037 4.318128 1.157039
v 0.400000 4.318128 1.157039
v 0.400000 4.463016 1.195862
v -0.482037 4.463016 1.195862
v -0.482037 5.196242 1.392329
v 0.400000 5.196242 1.392329
v 0.400000 5.341131 1.431152
v -0.482037 5.341131 1.431152
v -0.482037 6.074356 1.627619
v 0.400000 6.074356 1.627619
v 0.400000 6.219245 1.666442
v -0.482037 6.219245 1.666442
v -0.482037 6.952471 1.862908
v 0.400000 6.952471 1.862908
v 0.400000 7.097360 1.901731
v -0.482037 7.097360 1.901731
v -0.482037 7.830585 2.098197
v 0.400000 7.830585 2.098197
v 0.400000 7.975474 2.137019
v -0.482037 7.975474 2.137019
v -0.482037 8.708699 2.333486
v 0.400000 8.708699 2.333486
v 0.400000 8.853588 2.372309
v -0.482037 8.853588 2.372309
v -0.582037 0.011341 0.260840
v -0.482037 0.011341 0.260840
v -0.482037 9.670599 2.849027
v -0.582037 9.670599 2.849027
v 0.400000 0.011341 0.260840
v 0.500000 0.011341 0.260840
v 0.500000 9.670599 2.849027
v 0.400000 9.670599 2.849027
v -0.482037 0.817011 0.476719
v 0.400000 0.817011 0.476719
v 0.400000 0.961900 0.515541
v -0.482037 0.961900 0.515541
v -0.482037 1.695125 0.712009
v 0.400000 1.695125 0.712009
v 0.400000 1.840014 0.750832
v -0.482037 1.840014 0.750832
v -0.482037 2.573240 0.947298
v 0.400000 2.573240 0.947298
v 0.400000 2.718129 0.986121
v -0.482037 2.718129 0.986121
v -0.482037 3.451354 1.182588
v 0.400000 3.451354 1.182588
v 0.400000 3.596243 1.221411
v -0.482037 3.596243 1.221411
v -0.482037 4.329469 1.417878
v 0.400000 4.329469 1.417878
v 0.400000 4.474357 1.456701
v -0.482037 4.474357 1.456701
v -0.482037 5.207582 1.653168
v 0.400000 5.207582 1.653168
v 0.400000 5.352472 1.691991
v -0.482037 5.352472 1.691991
v -0.482037 6.085697 1.888458
v 0.400000 6.085697 1.888458
v 0.400000 6.230586 1.927281
v -0.482037 6.230586 1.927281
v -0.482037 6.963811 2.123748
v 0.400000 6.963811 2.123748
v 0.400000 7.108701 2.162570
v -0.482037 7.108701 2.162570
v -0.482037 7.841926 2.359038
v 0.400000 7.841926 2.359038
v 0.400000 7.986814 2.397859
v -0.482037 7.986814 2.397859
v -0.482037 8.720040 2.594326
v 0.400000 8.720040 2.594326
v 0.400000 8.864929 2.633149
v -0.482037 8.864929 2.633149
vn -0.0000 0.2588 -0.9659
vn -0.0000 -0.2588 0.9659
vn -0.0000 -0.9991 0.0434
vn -1.0000 -0.0000 -0.0000
vn -0.0000 0.9991 -0.0434
vn 1.0000 -0.0000 -0.0000
s 1
usemtl brown
f 17//15 20//15 19//15 18//15
f 21//15 24//15 23//15 22//15
f 25//15 28//15 27//15 26//15
f 29//15 32//15 31//15 30//15
f 33//15 36//15 35//15 34//15
f 37//15 40//15 39//15 38//15
f 41//15 44//15 43//15 42//15
f 45//15 48//15 47//15 46//15
f 49//15 52//15 51//15 50//15
f 53//15 56//15 55//15 54//15
f 57//15 60//15 59//15 58//15
f 61//15 64//15 63//15 62//15
f 65//16 66//16 67//16 68//16
f 69//16 70//16 71//16 72//16
f 73//16 74//16 75//16 76//16
f 77//16 78//16 79//16 80//16
f 81//16 82//16 83//16 84//16
f 85//16 86//16 87//16 88//16
f 89//16 90//16 91//16 92//16
f 93//16 94//16 95//16 96//16
f 97//16 98//16 99//16 100//16
f 101//16 102//16 103//16 104//16
f 105//16 106//16 107//16 108//16
f 109//16 110//16 111//16 112//16
f 21//17 22//17 70//17 69//17
f 52//18 49//18 97//18 100//18
f 35//19 36//19 84//19 83//19
f 62//20 63//20 111//20 110//20
f 22//20 23//20 71//20 70//20
f 49//17 50//17 98//17 97//17
f 40//18 37//18 85//18 88//18
f 63//19 64//19 112//19 111//19
f 23//19 24//19 72//19 71//19
f 50//20 51//20 99//20 98//20
f 37//17 38//17 86//17 85//17
f 28//18 25//18 73//18 76//18
f 51//19 52//19 100//19 99//19
f 38//20 39//20 87//20 86//20
f 25//17 26//17 74//17 73//17
f 56//18 53//18 101//18 104//18
f 39//19 40//19 88//19 87//19
f 26//20 27//20 75//20 74//20
f 53//17 54//17 102//17 101//17
f 44//18 41//18 89//18 92//18
f 27//19 28//19 76//19 75//19
f 54//20 55//20 103//20 102//20
f 41//17 42//17 90//17 89//17
f 32//18 29//18 77//18 80//18
f 55//19 56//19 104//19 103//19
f 42//20 43//20 91//20 90//20
f 29//17 30//17 78//17 77//17
f 60//18 57//18 105//18 108//18
f 20//18 17//18 65//18 68//18
f 43//19 44//19 92//19 91//19
f 30//20 31//20 79//20 78//20
f 57//17 58//17 106//17 105//17
f 17//17 18//17 66//17 65//17
f 48//18 45//18 93//18 96//18
f 31//19 32//19 80//19 79//19
f 58//20 59//20 107//20 106//20
f 18//20 19//20 67//20 66//20
f 45//17 46//17 94//17 93//17
f 36//18 33//18 81//18 84//18
f 59//19 60//19 108//19 107//19
f 19//19 20//19 68//19 67//19
f 46//20 47//20 95//20 94//20
f 33//17 34//17 82//17 81//17
f 64//18 61//18 109//18 112//18
f 24//18 21//18 69//18 72//18
f 47//19 48//19 96//19 95//19
f 34//20 35//20 83//20 82//20
f 61//17 62//17 110//17 109//17
o LadderDown
v -0.582037 0.000000 0.000000
v -0.482037 0.000000 0.000000
v -0.482037 3.344662 0.887059
v -0.582037 3.344285 0.846232
v 0.400000 0.000000 0.000000
v 0.500000 0.000000 0.000000
v 0.500000 3.331053 0.887059
v 0.400000 3.331053 0.873450
v -0.482037 0.805670 0.215879
v 0.400000 0.805670 0.215879
v 0.400000 0.950559 0.254701
v -0.482037 0.950559 0.254701
v -0.482037 1.683784 0.451169
v 0.400000 1.683784 0.451169
v 0.400000 1.828673 0.489992
v -0.482037 1.828673 0.489992
v -0.482037 2.561899 0.686459
v 0.400000 2.561899 0.686459
v 0.400000 2.706788 0.725282
v -0.482037 2.706788 0.725282
v -0.582037 0.011341 0.260840
v -0.482037 0.011341 0.260840
v -0.482037 3.344225 1.147899
v -0.582037 3.344657 1.107072
v 0.400000 0.011341 0.260840
v 0.500000 0.011341 0.260840
v 0.500000 3.342394 1.147899
v 0.400000 3.342394 1.134290
v -0.482037 0.817011 0.476719
v 0.400000 0.817011 0.476719
v 0.400000 0.961900 0.515541
v -0.482037 0.961900 0.515541
v -0.482037 1.695125 0.712009
v 0.400000 1.695125 0.712009
v 0.400000 1.840014 0.750832
v -0.482037 1.840014 0.750832
v -0.482037 2.573240 0.947298
v 0.400000 2.573240 0.947298
v 0.400000 2.718129 0.986121
v -0.482037 2.718129 0.986121
vn 0.1934 0.2461 -0.9497
vn 0.0656 0.2549 -0.9647
vn -0.0000 0.2588 -0.9659
vn -0.1943 -0.2468 0.9494
vn -0.0656 -0.2549 0.9647
vn -0.0000 -0.2588 0.9659
vn -0.0000 -0.9991 0.0434
vn -0.0000 0.9991 -0.0434
vn 1.0000 -0.0000 -0.0000
vn 0.0059 0.9990 -0.0434
vn -1.0000 -0.0000 -0.0000
vn 0.0002 1.0000 0.0001
s 1
usemtl brown
f 113//21 116//21 115//21 114//21
f 117//22 120//22 119//22 118//22
f 121//23 124//23 123//23 122//23
f 125//23 128//23 127//23 126//23
f 129//23 132//23 131//23 130//23
f 133//24 134//24 135//24 136//24
f 137//25 138//25 139//25 140//25
f 141//26 142//26 143//26 144//26
f 145//26 146//26 147//26 148//26
f 149//26 150//26 151//26 152//26
f 117//27 118//27 138//27 137//27
f 131//28 132//28 152//28 151//28
f 118//29 119//29 139//29 138//29
f 119//30 120//30 140//30 139//30
f 124//31 121//31 141//31 144//31
f 121//27 122//27 142//27 141//27
f 122//29 123//29 143//29 142//29
f 123//28 124//28 144//28 143//28
f 128//31 125//31 145//31 148//31
f 125//27 126//27 146//27 145//27
f 116//31 113//31 133//31 136//31
f 126//29 127//29 147//29 146//29
f 113//27 114//27 134//27 133//27
f 127//28 128//28 148//28 147//28
f 114//29 115//29 135//29 134//29
f 132//31 129//31 149//31 152//31
f 115//32 116//32 136//32 135//32
f 129//27 130//27 150//27 149//27
f 120//31 117//31 137//31 140//31
f 130//29 131//29 151//29 150//29
o TopHole
v -1.486207 8.704146 -0.819334
v 1.412691 8.698339 -0.799722
v 1.388277 8.726143 2.800640
v -1.510336 8.730723 2.780961
v -1.692972 8.739717 2.983444
v 1.583016 8.735038 2.990230
v 1.607123 8.699121 -1.007210
v -1.666269 8.692627 -1.038780
v -1.477312 8.981118 -0.824795
v 1.421586 8.975310 -0.805183
v 1.397172 9.003115 2.795179
v -1.501441 9.007696 2.775499
v -1.690200 9.324352 2.975175
v 1.585788 9.319673 2.981961
v 1.609895 9.283755 -1.015479
v -1.663497 9.277262 -1.047049
vn 1.0000 -0.0047 0.0061
vn -0.9995 0.0320 -0.0070
vn 0.0068 -0.0199 -0.9998
vn -0.0067 0.0199 0.9998
vn 0.9995 -0.0320 0.0069
vn 0.0097 -0.0142 -0.9999
vn -1.0000 0.0046 -0.0067
vn -0.0021 0.0142 0.9999
vn -0.0018 -1.0000 0.0075
vn -0.0002 0.9999 -0.0104
vn -0.0017 -0.9990 0.0456
vn 0.0252 -0.9996 0.0085
vn 0.0065 -0.9999 0.0097
vn -0.0001 -0.9997 0.0251
s 1
usemtl dark
f 161//41 162//41 163//41 164//41
usemtl mortar
f 159//33 167//33 166//33 158//33
f 155//34 163//34 162//34 154//34
f 156//35 164//35 163//35 155//35
f 154//36 162//36 161//36 153//36
f 153//37 161//37 164//37 156//37
f 160//38 168//38 167//38 159//38
f 157//39 165//39 168//39 160//39
f 158//40 166//40 165//40 157//40
f 165//42 166//42 167//42 168//42
f 155//43 158//43 157//43 156//43
f 154//44 159//44 158//44 155//44
f 156//45 157//45 160//45 153//45
f 153//46 160//46 159//46 154//46
