# Blender 4.3.2
# www.blender.org
mtllib mark-king.mtl
o mark-king
v -0.536027 3.765770 0.057244
v -0.495039 3.767160 0.206437
v -0.520725 3.750130 0.144014
v -0.464884 3.751885 0.280693
v -0.380368 3.766215 0.381396
v -0.307841 3.750736 0.447224
v -0.219629 3.768037 0.486641
v -0.177999 3.749487 0.509638
v -0.089122 3.764601 0.531012
v 0.019955 3.764129 0.540815
v 0.000860 3.749011 0.539208
v 0.109206 3.765549 0.527352
v 0.170935 3.749562 0.512506
v 0.231491 3.767501 0.482890
v 0.298579 3.752387 0.452427
v 0.379394 3.767509 0.375724
v 0.392765 3.751349 0.371330
v 0.444700 3.765948 0.303932
v 0.495976 3.748914 0.217438
v 0.513446 3.765497 0.160676
v 0.535387 3.765894 -0.053709
v 0.541046 3.750402 0.016050
v -0.538579 3.887658 0.031551
v -0.523612 3.884778 0.138937
v -0.481874 3.871946 0.229750
v -0.454329 3.888403 0.294362
v -0.377406 3.873104 0.382007
v -0.279562 3.884886 0.464540
v -0.201927 3.872628 0.497082
v -0.177286 3.890789 0.507478
v -0.102323 3.880473 0.532287
v -0.004682 3.876369 0.540620
v 0.038329 3.892012 0.535694
v 0.091059 3.875340 0.530333
v 0.205504 3.882374 0.502436
v 0.232300 3.897857 0.479788
v 0.285197 3.875474 0.458526
v 0.376789 3.892660 0.379690
v 0.376386 3.872406 0.380690
v 0.414976 3.887784 0.350060
v 0.468500 3.873357 0.257916
v 0.518953 3.873410 0.137154
v 0.522564 3.890831 0.134575
v 0.538422 3.874468 0.020882
v 0.531037 3.889592 -0.100077
v -0.350082 3.889794 0.409761
v -0.534226 3.981415 0.059668
v -0.486489 3.908120 0.231694
v -0.413973 4.009619 0.349291
v -0.355513 4.010143 0.408289
v -0.240257 3.906248 0.477099
v -0.059072 3.980280 0.535681
v -0.002103 4.379795 0.581652
v 0.102082 4.161056 0.538129
v 0.059770 3.980503 0.535412
v 0.351621 4.013713 0.411725
v 0.389773 4.210373 0.391927
v 0.430462 4.090040 0.330335
v 0.409618 4.012926 0.353758
v 0.534264 3.981566 0.059819
v 0.531704 3.892614 -0.033900
v 0.581264 4.379502 -0.000836
v 0.533940 3.981637 -0.056890
v 0.480383 3.906440 0.237535
v 0.507563 3.749383 -0.186159
v 0.495204 3.766155 -0.208651
v 0.437750 3.761512 -0.319414
v 0.393342 3.749145 -0.367858
v 0.371062 3.767445 -0.383774
v 0.288639 3.752735 -0.460611
v 0.204673 3.765539 -0.498712
v 0.072022 3.767087 -0.534035
v 0.053809 3.749299 -0.540042
v -0.086051 3.765982 -0.530526
v -0.198926 3.753677 -0.506456
v -0.227102 3.768009 -0.482760
v -0.339464 3.767175 -0.415389
v -0.348666 3.749218 -0.412893
v -0.402954 3.766596 -0.357217
v -0.489172 3.748911 -0.239537
v -0.487738 3.764647 -0.231549
v -0.532732 3.765984 -0.084267
v -0.539509 3.748952 -0.020329
v 0.515483 3.874478 -0.155109
v 0.472737 3.873056 -0.255545
v 0.481764 3.891687 -0.237071
v 0.423541 3.890232 -0.331613
v 0.346445 3.872418 -0.406425
v 0.314992 3.883314 -0.442521
v 0.284048 3.892466 -0.453458
v 0.214399 3.872303 -0.490358
v 0.133340 3.888339 -0.523230
v 0.023348 3.892708 -0.534362
v 0.044199 3.872525 -0.532858
v -0.016477 3.882786 -0.542867
v -0.195752 3.887688 -0.504660
v -0.111463 3.872963 -0.522845
v -0.247541 3.871649 -0.472066
v -0.309941 3.889936 -0.439868
v -0.379287 3.875951 -0.384012
v -0.402758 3.893309 -0.348350
v -0.433245 3.875100 -0.319623
v -0.479771 3.890130 -0.244541
v -0.503439 3.873653 -0.187904
v -0.528014 3.891592 -0.108280
v -0.530083 3.873076 -0.087408
v -0.528196 3.872172 0.078108
v 0.482306 3.904665 -0.237628
v 0.409923 4.013545 -0.351391
v 0.396434 4.210159 -0.396632
v 0.352225 4.012773 -0.409616
v 0.240163 3.905157 -0.479567
v 0.102489 4.161360 -0.537532
v 0.056778 3.982734 -0.535327
v -0.057661 3.981689 -0.534068
v -0.100901 4.161746 -0.536553
v -0.237139 3.905799 -0.482749
v -0.352185 4.013368 -0.410747
v -0.396618 4.211080 -0.397072
v -0.410826 4.013009 -0.352355
v -0.535981 3.980304 -0.059537
v -0.582228 4.380770 -0.000381
v 0.535544 4.162025 -0.100197
v -0.327755 4.091105 -0.428921
v -0.538246 4.160297 -0.100721
v -0.476237 3.906022 -0.239350
v -0.538028 4.160692 0.102871
v -0.518318 3.981193 0.059176
v -0.464191 3.907343 0.231694
v -0.431843 4.088138 0.324592
v -0.399502 4.010232 0.338285
v -0.395971 4.206756 0.389051
v -0.342611 4.009540 0.395512
v -0.328069 4.088508 0.423066
v -0.233360 3.907952 0.461702
v -0.100991 4.160360 0.535389
v -0.058960 3.980821 0.519736
v -0.002519 4.380839 0.565654
v 0.057548 3.982266 0.517291
v 0.147844 3.941801 0.497401
v 0.234205 3.910038 0.463544
v 0.326279 4.091675 0.430350
v 0.395992 4.012748 0.341418
v 0.340349 4.014092 0.398872
v 0.464832 3.907567 0.231275
v 0.517663 3.982155 0.058065
v 0.564730 4.381041 0.003062
v 0.519033 3.983636 -0.051722
v 0.544383 4.159944 0.104039
v 0.433057 4.090891 -0.330007
v 0.398708 4.012644 -0.339977
v 0.385190 4.212708 -0.384883
v 0.340534 4.012012 -0.397150
v 0.327602 4.090775 -0.428460
v 0.230937 3.907709 -0.465863
v 0.056294 3.982738 -0.518351
v 0.000623 4.378747 -0.574176
v -0.058940 3.979816 -0.517898
v -0.340272 4.012727 -0.398658
v -0.386539 4.213004 -0.384209
v -0.397391 4.011859 -0.340206
v -0.429047 4.090580 -0.327676
v -0.518262 3.982454 -0.054985
v -0.565745 4.380860 0.000031
v 0.467953 3.908042 -0.225193
v -0.231655 3.907794 -0.462781
v -0.469523 3.907557 -0.224748
v -0.504699 3.747869 -0.128156
v -0.395351 3.747920 -0.337036
v -0.204039 3.748023 -0.478920
v -0.508445 3.747967 0.116564
v -0.412645 3.747943 0.318221
v -0.231438 3.747914 0.465025
v 0.002457 3.748034 0.521289
v 0.190836 3.747908 -0.480371
v 0.518548 3.747888 0.069066
v 0.404856 3.747959 0.327993
v 0.477478 3.747987 -0.205666
v 0.342885 3.748001 -0.389389
v 0.019472 3.748004 -0.518771
v 0.222537 3.747952 0.468535
vn -0.9435 -0.3124 0.1101
vn -0.8632 0.4480 0.2330
vn -0.9257 0.0104 0.3781
vn -0.5785 0.7201 0.3831
vn -0.6504 -0.4524 0.6102
vn -0.4054 0.6833 0.6073
vn -0.4274 0.1468 0.8921
vn -0.2798 0.4339 0.8564
vn -0.1509 -0.3945 0.9064
vn -0.0895 0.0071 0.9960
vn 0.1467 -0.3067 0.9404
vn 0.1494 -0.2892 0.9455
vn 0.3094 0.3885 0.8680
vn 0.4240 0.0606 0.9036
vn 0.4207 0.6970 0.5807
vn 0.6205 0.3186 0.7166
vn 0.6828 0.3984 0.6124
vn 0.7800 -0.3352 0.5284
vn 0.7985 0.4654 0.3817
vn 0.9382 -0.2767 0.2079
vn 0.7659 0.6380 0.0796
vn -0.0032 0.9965 0.0838
vn -0.9568 -0.2617 0.1263
vn -0.6583 -0.7257 0.2000
vn -0.9100 -0.0765 0.4074
vn -0.6217 -0.6537 0.4315
vn -0.7388 0.1017 0.6662
vn -0.6030 -0.2643 0.7526
vn -0.3403 -0.7863 0.5157
vn -0.3870 -0.0028 0.9221
vn -0.3248 -0.0978 0.9407
vn -0.0579 0.4411 0.8956
vn 0.1070 0.0188 0.9941
vn 0.2022 0.3448 0.9166
vn 0.1777 0.7017 0.6900
vn 0.1591 -0.8894 0.4286
vn 0.4744 0.3564 0.8049
vn 0.4988 0.5205 0.6930
vn 0.6162 0.2047 0.7605
vn 0.6436 -0.1050 0.7581
vn 0.6185 -0.6377 0.4591
vn 0.8208 0.3922 0.4153
vn 0.9145 -0.1330 0.3820
vn 0.9709 -0.1774 0.1610
vn 0.8014 0.5976 0.0258
vn 0.6579 -0.7526 0.0277
vn -0.1918 0.9244 0.3297
vn -0.0805 0.8104 0.5803
vn -0.0278 -0.9867 -0.1602
vn -0.9549 0.0551 0.2918
vn -0.8363 -0.0169 0.5480
vn -0.5478 0.0092 0.8365
vn -0.3295 -0.0479 0.9429
vn 0.0094 -0.0256 0.9996
vn 0.3411 0.0309 0.9395
vn 0.6392 -0.1477 0.7547
vn 0.5866 -0.0215 0.8096
vn 0.7999 -0.0055 0.6001
vn 0.7355 0.1225 0.6664
vn 0.9221 0.0369 0.3853
vn -0.8245 0.0196 0.5656
vn -0.5483 0.0104 0.8362
vn -0.9641 0.0191 0.2647
vn -0.3226 -0.0398 0.9457
vn 0.0185 -0.0089 0.9998
vn 0.3466 0.0391 0.9372
vn 0.9769 -0.1388 0.1623
vn 0.9015 -0.0144 0.4326
vn 0.9944 -0.0286 0.1017
vn -0.9990 0.0421 0.0143
vn -0.9665 -0.0315 0.2548
vn -0.7093 0.0595 0.7023
vn -0.7076 -0.0825 0.7018
vn -0.4579 -0.0073 0.8889
vn -0.2962 -0.0674 0.9528
vn 0.0025 -0.1147 0.9934
vn 0.0023 0.0026 1.0000
vn 0.2499 -0.0731 0.9655
vn 0.2782 -0.0643 0.9584
vn 0.5642 -0.0996 0.8196
vn 0.7060 0.0609 0.7056
vn 0.7061 -0.0403 0.7070
vn 0.8010 -0.0350 0.5976
vn 0.6132 0.0029 0.7899
vn 0.9973 -0.0651 0.0346
vn 0.9869 -0.1086 0.1197
vn 0.9701 -0.0833 -0.2280
vn -0.9664 -0.0794 0.2445
vn -0.7798 -0.1000 0.6180
vn -0.7246 0.6787 0.1192
vn -0.8770 0.0770 0.4743
vn -0.8971 -0.1790 0.4040
vn -0.7417 -0.0253 0.6703
vn -0.5212 -0.0131 0.8533
vn -0.3799 0.2186 0.8988
vn -0.4718 -0.2768 0.8371
vn -0.1277 -0.1407 0.9818
vn 0.6288 -0.0862 0.7728
vn 0.8628 0.0220 0.5051
vn 0.9206 0.1707 0.3513
vn 0.8074 -0.4365 0.3970
vn 0.9950 -0.0846 0.0531
vn 0.9264 -0.3445 -0.1517
vn 0.9057 0.3532 -0.2343
vn 0.8866 0.0347 -0.4613
vn 0.6109 -0.6928 -0.3831
vn 0.6876 -0.0885 -0.7207
vn 0.6049 0.4365 -0.6660
vn 0.3581 0.7679 -0.5311
vn 0.2575 0.0620 -0.9643
vn 0.2755 -0.5466 -0.7908
vn -0.0232 0.3412 -0.9397
vn -0.1205 -0.5328 -0.8376
vn -0.2216 0.6951 -0.6839
vn -0.4794 0.3718 -0.7949
vn -0.5269 0.1538 -0.8359
vn -0.6574 0.2375 -0.7151
vn -0.7192 -0.3770 -0.5836
vn -0.7829 0.3368 -0.5230
vn -0.9301 0.2301 -0.2862
vn -0.8881 -0.4119 -0.2039
vn -0.9543 0.2980 -0.0218
vn 0.2473 0.9542 -0.1683
vn 0.8690 -0.4817 -0.1133
vn 0.9140 0.2428 -0.3250
vn 0.9189 -0.0583 -0.3902
vn 0.8457 0.1083 -0.5225
vn 0.6483 -0.5363 -0.5404
vn 0.7055 -0.2079 -0.6775
vn 0.3934 0.8097 -0.4355
vn 0.3367 -0.7792 -0.5286
vn 0.3948 0.2949 -0.8702
vn 0.4022 0.2034 -0.8927
vn 0.1913 -0.6098 -0.7691
vn 0.1081 0.3604 -0.9265
vn 0.1341 -0.1607 -0.9778
vn -0.0925 0.8356 -0.5414
vn -0.0400 -0.8088 -0.5867
vn -0.2080 0.0174 -0.9780
vn -0.2674 -0.6257 -0.7328
vn -0.4895 -0.1612 -0.8570
vn -0.5103 -0.4343 -0.7423
vn -0.6069 0.4803 -0.6332
vn -0.7405 0.2664 -0.6170
vn -0.7439 0.3939 -0.5398
vn -0.8283 -0.3403 -0.4451
vn -0.9238 0.1956 -0.3292
vn -0.9507 -0.1790 -0.2531
vn -0.9968 0.0274 -0.0745
vn -0.8396 -0.5431 0.0066
vn 0.9898 0.0610 -0.1290
vn 0.9664 -0.0570 -0.2507
vn 0.9198 0.0214 -0.3918
vn 0.7661 0.0412 -0.6414
vn 0.2575 0.0520 -0.9649
vn 0.2417 0.0746 -0.9675
vn -0.0222 0.0053 -0.9997
vn -0.0639 0.0563 -0.9964
vn -0.5545 0.0368 -0.8314
vn -0.5141 -0.0129 -0.8576
vn -0.7624 -0.0945 -0.6402
vn -0.6744 0.0665 -0.7354
vn -0.8253 0.1034 -0.5552
vn -0.9659 -0.0365 -0.2563
vn -0.9994 0.0240 -0.0232
vn -0.9974 0.0711 0.0118
vn 0.5363 0.0172 -0.8438
vn 0.8128 -0.0822 -0.5768
vn 0.5681 -0.0441 -0.8217
vn -0.3497 0.0277 -0.9365
vn -0.8791 -0.0828 -0.4694
vn -0.3208 -0.0082 -0.9471
vn -0.9562 0.0151 -0.2923
vn 0.9670 -0.0862 -0.2396
vn 0.4107 0.9106 -0.0457
vn 0.8505 -0.0579 -0.5229
vn 0.8473 0.0084 -0.5311
vn 0.7556 -0.1270 -0.6426
vn 0.7103 -0.0179 -0.7036
vn 0.7101 -0.0344 -0.7032
vn 0.6539 -0.0971 -0.7504
vn 0.5155 0.0201 -0.8567
vn 0.0877 0.8386 -0.5376
vn -0.0100 -0.0990 -0.9950
vn -0.0109 -0.0067 -0.9999
vn -0.1308 -0.1159 -0.9846
vn -0.5118 0.0274 -0.8587
vn -0.4894 -0.0498 -0.8706
vn -0.7016 -0.0729 -0.7089
vn -0.6703 -0.0998 -0.7353
vn -0.8079 -0.0740 -0.5846
vn -0.9930 -0.1170 0.0157
vn 0.9580 -0.0750 -0.2767
vn 0.4942 -0.0536 -0.8677
vn 0.2103 -0.0659 -0.9754
vn 0.9394 -0.0537 -0.3387
vn 0.2493 -0.1029 -0.9630
vn 0.4011 -0.3525 -0.8455
vn -0.2194 -0.0661 -0.9734
vn -0.8701 -0.0483 -0.4905
vn -0.9621 -0.0723 -0.2629
vn -0.3636 0.2537 -0.8964
vn -0.4931 -0.0787 -0.8664
vn -0.7998 -0.0738 -0.5956
vn -0.9214 0.2895 -0.2592
vn -0.9284 0.1114 -0.3545
vn -0.8969 0.3042 -0.3208
vn -0.9959 -0.0474 -0.0766
vn 0.9932 0.1145 -0.0225
vn 0.7052 0.1143 -0.6997
vn -0.0223 0.1171 -0.9929
vn -0.0119 0.1187 -0.9929
vn -0.6857 0.2826 -0.6707
vn -0.7051 0.1530 -0.6924
vn -0.7080 0.1539 -0.6893
vn -0.6315 0.1733 -0.7557
vn -0.9932 0.1157 -0.0108
vn 0.6979 0.1673 -0.6963
vn 0.6674 0.1750 -0.7239
vn 0.0730 0.1036 -0.9919
vn -0.9885 0.1277 0.0805
vn -0.5645 0.1443 0.8127
vn -0.6972 0.1118 0.7081
vn -0.7581 0.1296 0.6392
vn 0.0013 0.1023 0.9948
vn 0.7547 0.1279 0.6434
vn 0.7097 0.1138 0.6952
vn 0.9930 0.1181 0.0018
vn -0.9928 0.1067 0.0544
vn -0.0831 0.1276 0.9883
vn 0.0526 0.1466 0.9878
vn 0.9931 0.1160 0.0171
vn 0.6324 0.1328 0.7632
vn -0.1104 -0.2332 0.9661
vn -0.0831 0.9242 0.3727
vn -0.0082 0.9219 0.3872
vn -0.4335 0.7446 0.5075
vn -0.4769 0.7604 0.4407
vn -0.7030 -0.3731 0.6055
vn 0.6245 -0.3766 -0.6842
vn 0.2788 0.7866 -0.5510
vn 0.4204 0.7729 -0.4753
vn 0.4155 0.9088 0.0375
vn 0.4888 0.8201 0.2975
vn 0.4707 0.6785 0.5640
vn 0.9645 -0.2239 -0.1400
vn 0.9032 0.4293 0.0046
vn -0.9145 0.4016 0.0500
vn -0.9739 -0.2267 -0.0146
vn -0.3672 0.9281 -0.0617
vn -0.3860 0.9221 0.0286
vn 0.0261 0.7487 -0.6623
vn -0.5546 -0.3619 -0.7493
vn -0.4080 0.7680 -0.4937
vn 0.6496 -0.3543 0.6727
vn 0.4548 0.7842 0.4222
vn 0.5311 0.7827 0.3245
vn 0.0248 0.9222 0.3860
vn 0.0321 0.9224 0.3848
vn 0.0268 -0.2337 0.9719
vn -0.0250 0.4205 0.9070
vn 0.0204 0.4175 -0.9084
vn 0.2672 -0.2117 -0.9401
vn 0.3504 0.9010 -0.2558
vn -0.0068 0.9142 -0.4053
vn 0.4666 0.7792 -0.4185
vn 0.5972 0.7652 -0.2405
vn 0.6546 -0.3610 -0.6642
vn 0.6346 0.5168 -0.5746
vn -0.7239 0.4801 0.4954
vn -0.3898 0.7707 0.5040
vn -0.6413 -0.3653 0.6747
vn -0.6627 0.7127 0.2298
vn -0.3693 0.9260 0.0780
vn -0.3815 0.9243 0.0124
vn -0.9668 -0.2336 -0.1035
vn 0.9685 -0.2475 0.0277
vn 0.3733 0.9243 0.0792
vn 0.3868 0.9221 0.0108
vn 0.5150 0.7651 0.3865
vn 0.4199 0.7741 0.4737
vn 0.6753 -0.3772 0.6338
vn 0.6751 0.5068 0.5361
vn -0.5681 0.5015 -0.6525
vn -0.4863 0.7722 -0.4090
vn -0.6672 -0.3672 -0.6481
vn -0.4526 0.7709 -0.4483
vn -0.0113 0.9211 -0.3891
vn -0.1045 0.9226 -0.3713
vn -0.3455 -0.2162 -0.9132
vn -0.1674 0.4386 -0.8830
vn 0.2456 0.3839 0.8901
vn -0.0237 -0.9996 -0.0127
vn -0.0782 -0.9948 -0.0652
vn -0.1051 -0.9942 -0.0240
vn -0.0313 -0.9995 -0.0001
vn -0.0447 -0.9769 -0.2089
vn -0.0153 -0.9962 -0.0854
vn -0.0223 -0.9993 -0.0308
vn -0.1081 -0.9697 -0.2192
vn -0.1264 -0.9917 0.0216
vn -0.0767 -0.9961 0.0441
vn -0.1135 -0.9921 0.0538
vn -0.2096 -0.9589 0.1911
vn -0.0516 -0.9966 0.0635
vn -0.0621 -0.9921 0.1094
vn -0.0112 -0.9988 0.0486
vn -0.0115 -0.9985 0.0534
vn 0.0973 -0.9644 -0.2459
vn 0.0096 -0.9989 -0.0453
vn 0.0734 -0.9898 -0.1217
vn 0.0748 -0.9896 -0.1228
vn 0.0302 -0.9994 -0.0177
vn 0.0880 -0.9940 -0.0646
vn 0.0483 -0.9988 -0.0030
vn 0.0817 -0.9966 -0.0126
vn 0.0868 -0.9866 0.1380
vn 0.0736 -0.9924 0.0981
vn 0.0797 -0.9914 0.1034
vn 0.0119 -0.9984 0.0555
vn 0.0117 -0.9987 0.0503
vn 0.1956 -0.9800 0.0365
vn 0.1562 -0.9804 0.1202
vn 0.0231 -0.9997 0.0104
vn -0.5128 0.0509 0.8570
vn 0.0040 -0.0024 1.0000
vn 0.8827 0.0851 0.4621
vn 0.9985 0.0530 0.0153
vn 0.9017 0.0591 -0.4284
vn 0.6283 0.0609 -0.7756
vn 0.3216 -0.0158 -0.9467
vn -0.2327 0.0549 -0.9710
vn -0.9110 0.0999 -0.4001
vn -0.9860 0.0776 0.1474
vn -0.8052 0.0597 0.5899
vn -0.2186 -0.0337 0.9752
vn 0.1753 0.0556 0.9830
vn 0.5945 0.0629 0.8016
vn -0.9565 -0.0214 0.2910
vn -0.8507 0.0135 0.5255
vn -0.7010 0.0147 0.7131
vn -0.5445 0.0198 0.8385
vn -0.2714 0.0409 0.9616
vn 0.5091 0.0011 0.8607
vn 0.3191 -0.0405 0.9469
vn 0.7150 0.0139 0.6989
vn 0.8427 0.0130 0.5382
vn 0.9564 -0.0352 0.2901
vn 0.9991 0.0425 0.0010
vn 0.2335 0.0551 -0.9708
vn -0.6104 0.0196 -0.7918
vn 0.9489 -0.0370 -0.3135
vn 0.8563 -0.0034 -0.5164
vn 0.7092 0.0184 -0.7048
vn 0.5101 -0.0117 -0.8600
vn -0.0208 -0.0122 -0.9997
vn -0.2018 0.0308 -0.9789
vn -0.3657 -0.0023 -0.9307
vn -0.6103 0.0197 -0.7919
vn -0.8487 -0.0016 -0.5289
vn -0.9542 -0.0176 -0.2986
vn -0.9999 -0.0044 -0.0125
s 0
usemtl Material.002
f 3//1 1//1 83//1
f 3//2 2//2 1//2
f 4//3 2//3 3//3
f 4//4 5//4 2//4
f 6//5 5//5 4//5
f 6//6 7//6 5//6
f 8//7 7//7 6//7
f 9//8 7//8 8//8
f 11//9 9//9 8//9
f 11//10 10//10 9//10
f 13//11 12//11 10//11
f 13//12 10//12 11//12
f 13//13 14//13 12//13
f 15//14 14//14 13//14
f 15//15 16//15 14//15
f 17//16 16//16 15//16
f 18//17 16//17 17//17
f 19//18 18//18 17//18
f 20//19 18//19 19//19
f 22//20 20//20 19//20
f 22//21 21//21 20//21
f 12//22 9//22 10//22
f 24//23 23//23 107//23
f 25//24 24//24 107//24
f 25//25 26//25 24//25
f 27//26 26//26 25//26
f 27//27 46//27 26//27
f 28//28 46//28 27//28
f 29//29 28//29 27//29
f 29//30 30//30 28//30
f 31//31 30//31 29//31
f 32//32 33//32 31//32
f 32//33 34//33 33//33
f 35//34 33//34 34//34
f 35//35 36//35 33//35
f 37//36 35//36 34//36
f 37//37 36//37 35//37
f 37//38 38//38 36//38
f 40//39 38//39 37//39
f 39//40 40//40 37//40
f 41//41 40//41 39//41
f 43//42 40//42 41//42
f 42//43 43//43 41//43
f 44//44 43//44 42//44
f 44//45 45//45 43//45
f 45//46 61//46 43//46
f 28//47 30//47 46//47
f 31//48 33//48 30//48
f 31//49 34//49 32//49
f 2//50 25//50 107//50
f 25//51 2//51 5//51
f 5//52 7//52 29//52
f 29//53 9//53 31//53
f 12//54 34//54 31//54
f 14//55 34//55 12//55
f 37//56 14//56 39//56
f 39//57 14//57 16//57
f 39//58 16//58 41//58
f 41//59 16//59 18//59
f 41//60 20//60 42//60
f 25//61 5//61 27//61
f 27//62 5//62 29//62
f 107//63 1//63 2//63
f 29//64 7//64 9//64
f 31//65 9//65 12//65
f 34//66 14//66 37//66
f 42//67 21//67 44//67
f 41//68 18//68 20//68
f 42//69 20//69 21//69
f 47//70 121//70 23//70
f 23//71 48//71 47//71
f 50//72 130//72 49//72
f 50//73 49//73 26//73
f 132//74 50//74 134//74
f 52//75 53//75 136//75
f 55//76 53//76 52//76
f 33//77 55//77 52//77
f 55//78 54//78 53//78
f 36//79 55//79 33//79
f 38//80 56//80 36//80
f 59//81 142//81 56//81
f 38//82 59//82 56//82
f 59//83 58//83 57//83
f 40//84 59//84 38//84
f 149//85 60//85 61//85
f 61//86 62//86 149//86
f 63//87 62//87 61//87
f 127//88 122//88 47//88
f 50//89 132//89 130//89
f 23//90 24//90 48//90
f 49//91 48//91 26//91
f 48//92 24//92 26//92
f 50//93 26//93 46//93
f 46//94 51//94 50//94
f 51//95 30//95 52//95
f 46//96 30//96 51//96
f 30//97 33//97 52//97
f 59//98 57//98 142//98
f 59//99 40//99 64//99
f 60//100 64//100 43//100
f 40//101 43//101 64//101
f 60//102 43//102 61//102
f 65//103 21//103 22//103
f 65//104 66//104 21//104
f 67//105 66//105 65//105
f 68//106 67//106 65//106
f 70//107 69//107 67//107
f 70//108 67//108 68//108
f 70//109 71//109 69//109
f 73//110 72//110 71//110
f 73//111 71//111 70//111
f 74//112 72//112 73//112
f 75//113 74//113 73//113
f 75//114 76//114 74//114
f 77//115 76//115 75//115
f 78//116 77//116 75//116
f 78//117 79//117 77//117
f 80//118 79//118 78//118
f 80//119 81//119 79//119
f 80//120 82//120 81//120
f 83//121 82//121 80//121
f 1//122 82//122 83//122
f 67//123 69//123 66//123
f 84//124 45//124 44//124
f 84//125 86//125 45//125
f 85//126 86//126 84//126
f 85//127 87//127 86//127
f 88//128 87//128 85//128
f 88//129 89//129 87//129
f 89//130 90//130 87//130
f 91//131 89//131 88//131
f 92//132 90//132 89//132
f 91//133 92//133 89//133
f 94//134 92//134 91//134
f 95//135 93//135 92//135
f 95//136 92//136 94//136
f 96//137 93//137 95//137
f 97//138 95//138 94//138
f 97//139 96//139 95//139
f 98//140 96//140 97//140
f 99//141 96//141 98//141
f 100//142 99//142 98//142
f 100//143 101//143 99//143
f 102//144 101//144 100//144
f 103//145 101//145 102//145
f 104//146 103//146 102//146
f 104//147 105//147 103//147
f 106//148 105//148 104//148
f 23//149 105//149 106//149
f 107//150 23//150 106//150
f 84//151 44//151 21//151
f 84//152 21//152 66//152
f 66//153 85//153 84//153
f 85//154 69//154 88//154
f 91//155 71//155 72//155
f 72//156 94//156 91//156
f 72//157 74//157 94//157
f 94//158 74//158 97//158
f 98//159 77//159 100//159
f 98//160 76//160 77//160
f 100//161 77//161 102//161
f 102//162 77//162 79//162
f 79//163 81//163 104//163
f 104//164 81//164 106//164
f 1//165 106//165 82//165
f 107//166 106//166 1//166
f 88//167 71//167 91//167
f 85//168 66//168 69//168
f 88//169 69//169 71//169
f 97//170 76//170 98//170
f 102//171 79//171 104//171
f 97//172 74//172 76//172
f 106//173 81//173 82//173
f 61//174 108//174 63//174
f 45//175 108//175 61//175
f 87//176 108//176 86//176
f 87//177 109//177 108//177
f 110//178 150//178 111//178
f 109//179 111//179 150//179
f 87//180 111//180 109//180
f 90//181 111//181 87//181
f 112//182 111//182 90//182
f 93//183 112//183 92//183
f 115//184 157//184 114//184
f 93//185 115//185 114//185
f 93//186 96//186 115//186
f 118//187 117//187 99//187
f 118//188 119//188 124//188
f 101//189 118//189 99//189
f 101//190 119//190 118//190
f 120//191 119//191 101//191
f 121//192 47//192 122//192
f 62//193 63//193 123//193
f 111//194 154//194 110//194
f 114//195 157//195 113//195
f 108//196 45//196 86//196
f 114//197 112//197 93//197
f 92//198 112//198 90//198
f 115//199 116//199 157//199
f 120//200 162//200 119//200
f 125//201 121//201 122//201
f 117//202 115//202 96//202
f 99//203 117//203 96//203
f 120//204 101//204 103//204
f 103//205 126//205 120//205
f 121//206 126//206 105//206
f 105//207 126//207 103//207
f 121//208 105//208 23//208
f 127//209 128//209 164//209
f 133//210 131//210 134//210
f 137//211 138//211 139//211
f 139//212 138//212 54//212
f 143//213 141//213 144//213
f 144//214 142//214 57//214
f 143//215 144//215 57//215
f 143//216 57//216 58//216
f 148//217 146//217 147//217
f 130//218 132//218 131//218
f 132//219 134//219 131//219
f 138//220 137//220 136//220
f 146//221 149//221 147//221
f 152//222 151//222 150//222
f 152//223 153//223 151//223
f 153//224 152//224 154//224
f 158//225 156//225 116//225
f 160//226 159//226 124//226
f 161//227 159//227 160//227
f 128//228 163//228 164//228
f 123//229 148//229 147//229
f 157//230 156//230 113//230
f 116//231 156//231 157//231
f 125//232 164//232 163//232
f 161//233 160//233 162//233
f 60//234 149//234 146//234
f 64//235 146//235 145//235
f 64//236 60//236 146//236
f 36//237 56//237 141//237
f 56//238 144//238 141//238
f 142//239 144//239 56//239
f 58//240 59//240 143//240
f 59//241 64//241 145//241
f 59//242 145//242 143//242
f 55//243 140//243 139//243
f 55//244 36//244 140//244
f 36//245 141//245 140//245
f 54//246 55//246 139//246
f 53//247 54//247 138//247
f 53//248 138//248 136//248
f 136//249 137//249 52//249
f 51//250 137//250 135//250
f 51//251 52//251 137//251
f 129//252 48//252 49//252
f 131//253 49//253 130//253
f 131//254 129//254 49//254
f 50//255 133//255 134//255
f 51//256 133//256 50//256
f 51//257 135//257 133//257
f 128//258 47//258 48//258
f 129//259 128//259 48//259
f 128//260 127//260 47//260
f 122//261 127//261 164//261
f 122//262 164//262 125//262
f 125//263 163//263 121//263
f 126//264 121//264 167//264
f 121//265 163//265 167//265
f 159//266 117//266 118//266
f 166//267 117//267 159//267
f 124//268 159//268 118//268
f 124//269 119//269 160//269
f 162//270 160//270 119//270
f 126//271 161//271 120//271
f 161//272 162//272 120//272
f 126//273 167//273 161//273
f 158//274 115//274 117//274
f 158//275 117//275 166//275
f 158//276 116//276 115//276
f 114//277 113//277 156//277
f 112//278 156//278 155//278
f 112//279 114//279 156//279
f 151//280 165//280 108//280
f 151//281 108//281 109//281
f 150//282 151//282 109//282
f 110//283 152//283 150//283
f 154//284 152//284 110//284
f 112//285 153//285 111//285
f 154//286 111//286 153//286
f 155//287 153//287 112//287
f 148//288 63//288 108//288
f 108//289 165//289 148//289
f 123//290 63//290 148//290
f 62//291 123//291 147//291
f 149//292 62//292 147//292
f 169//293 168//293 80//293
f 78//294 169//294 80//294
f 83//295 80//295 168//295
f 168//296 171//296 83//296
f 75//297 73//297 170//297
f 170//298 73//298 180//298
f 78//299 170//299 169//299
f 78//300 75//300 170//300
f 83//301 171//301 3//301
f 4//302 3//302 171//302
f 172//303 4//303 171//303
f 4//304 172//304 6//304
f 173//305 6//305 172//305
f 8//306 6//306 173//306
f 174//307 8//307 173//307
f 11//308 8//308 174//308
f 70//309 175//309 73//309
f 175//310 180//310 73//310
f 175//311 70//311 179//311
f 70//312 68//312 179//312
f 68//313 65//313 179//313
f 65//314 178//314 179//314
f 65//315 22//315 178//315
f 176//316 178//316 22//316
f 181//317 15//317 13//317
f 15//318 177//318 17//318
f 181//319 177//319 15//319
f 11//320 174//320 13//320
f 181//321 13//321 174//321
f 176//322 22//322 19//322
f 19//323 17//323 177//323
f 19//324 177//324 176//324
f 155//325 175//325 179//325
f 158//326 180//326 156//326
f 167//327 168//327 169//327
f 163//328 171//328 168//328
f 172//329 171//329 129//329
f 133//330 173//330 172//330
f 137//331 173//331 135//331
f 140//332 181//332 174//332
f 145//333 176//333 177//333
f 176//334 148//334 178//334
f 178//335 151//335 179//335
f 175//336 155//336 180//336
f 180//337 158//337 170//337
f 170//338 159//338 169//338
f 165//339 178//339 148//339
f 151//340 178//340 165//340
f 151//341 153//341 179//341
f 155//342 179//342 153//342
f 156//343 180//343 155//343
f 159//344 170//344 166//344
f 158//345 166//345 170//345
f 159//346 161//346 169//346
f 167//347 169//347 161//347
f 167//348 163//348 168//348
f 128//349 171//349 163//349
f 173//350 137//350 174//350
f 181//351 141//351 177//351
f 129//352 171//352 128//352
f 131//353 172//353 129//353
f 133//354 172//354 131//354
f 135//355 173//355 133//355
f 139//356 174//356 137//356
f 140//357 174//357 139//357
f 141//358 181//358 140//358
f 141//359 143//359 177//359
f 145//360 177//360 143//360
f 146//361 176//361 145//361
f 148//362 176//362 146//362
