# Blender 4.3.2
# www.blender.org
mtllib pentagram.mtl
o pentagram
v -2.303367 0.134634 -0.489524
v -2.151268 0.135062 -0.957636
v -1.905167 0.135779 -1.383896
v -1.575818 0.136756 -1.749672
v -1.177619 0.137948 -2.038981
v -0.727971 0.139305 -2.239177
v -0.246526 0.140766 -2.341510
v 0.245675 0.142269 -2.341508
v 0.727120 0.143747 -2.239172
v 1.176767 0.145135 -2.038974
v 1.574964 0.146374 -1.749663
v 1.904309 0.147408 -1.383885
v 2.150408 0.148193 -0.957624
v 2.302505 0.148694 -0.489511
v 2.353952 0.148890 -0.000004
v 2.302502 0.148772 0.489501
v 2.150402 0.148345 0.957614
v 1.904300 0.147627 1.383872
v 1.574953 0.146651 1.749649
v 1.176753 0.145458 2.038958
v 0.727105 0.144101 2.239151
v 0.245660 0.142640 2.341485
v -0.246540 0.141137 2.341483
v -0.727984 0.139660 2.239147
v -1.177631 0.138271 2.038951
v -1.575828 0.137033 1.749640
v -1.905173 0.135998 1.383860
v -2.151272 0.135213 0.957601
v -2.303369 0.134712 0.489488
v -2.354816 0.134516 -0.000018
v -2.302502 -0.148772 -0.489502
v -2.150403 -0.148345 -0.957614
v -1.904301 -0.147627 -1.383874
v -1.574953 -0.146651 -1.749649
v -1.176754 -0.145458 -2.038958
v -0.727106 -0.144101 -2.239154
v -0.245660 -0.142640 -2.341487
v 0.246540 -0.141137 -2.341486
v 0.727985 -0.139660 -2.239150
v 1.177632 -0.138271 -2.038951
v 1.575829 -0.137033 -1.749640
v 1.905174 -0.135998 -1.383862
v 2.151273 -0.135213 -0.957601
v 2.303370 -0.134712 -0.489488
v 2.354817 -0.134516 0.000018
v 2.303367 -0.134634 0.489524
v 2.151267 -0.135062 0.957636
v 1.905166 -0.135779 1.383894
v 1.575818 -0.136756 1.749672
v 1.177619 -0.137948 2.038981
v 0.727970 -0.139305 2.239174
v 0.246525 -0.140766 2.341507
v -0.245675 -0.142269 2.341506
v -0.727119 -0.143747 2.239170
v -1.176766 -0.145135 2.038973
v -1.574963 -0.146374 1.749663
v -1.904308 -0.147408 1.383883
v -2.150407 -0.148193 0.957623
v -2.302504 -0.148694 0.489510
v -2.353951 -0.148890 0.000004
v -2.706182 0.133398 -0.575148
v -2.527483 0.133900 -1.125139
v -2.526618 -0.149506 -1.125116
v -2.705317 -0.150008 -0.575125
v -2.238329 0.134743 -1.625959
v -2.237464 -0.148663 -1.625937
v -1.851378 0.135890 -2.055715
v -1.850513 -0.147516 -2.055692
v -1.383527 0.137291 -2.395629
v -1.382662 -0.146115 -2.395607
v -0.855227 0.138885 -2.630841
v -0.854362 -0.144521 -2.630818
v -0.289571 0.140603 -2.751076
v -0.288706 -0.142804 -2.751053
v 0.288727 0.142368 -2.751074
v 0.289593 -0.141038 -2.751051
v 0.854380 0.144104 -2.630836
v 0.855245 -0.139302 -2.630813
v 1.382677 0.145735 -2.395621
v 1.383542 -0.137671 -2.395599
v 1.850525 0.147190 -2.055704
v 1.851390 -0.136216 -2.055681
v 2.237479 0.148406 -1.625946
v 2.238344 -0.135001 -1.625924
v 2.526626 0.149328 -1.125125
v 2.527491 -0.134078 -1.125103
v 2.705325 0.149917 -0.575131
v 2.706190 -0.133489 -0.575109
v 2.765772 0.150147 -0.000003
v 2.766637 -0.133259 0.000019
v 2.705321 0.150008 0.575125
v 2.706186 -0.133398 0.575148
v 2.526618 0.149506 1.125116
v 2.527483 -0.133900 1.125139
v 2.237468 0.148663 1.625935
v 2.238333 -0.134743 1.625957
v 1.850512 0.147516 2.055692
v 1.851377 -0.135890 2.055715
v 1.382662 0.146115 2.395606
v 1.383527 -0.137291 2.395628
v 0.854363 0.144521 2.630818
v 0.855228 -0.138885 2.630841
v 0.288710 0.142804 2.751050
v 0.289575 -0.140603 2.751072
v -0.289588 0.141038 2.751048
v -0.288723 -0.142368 2.751070
v -0.855244 0.139302 2.630813
v -0.854379 -0.144104 2.630836
v -1.383541 0.137671 2.395598
v -1.382676 -0.145735 2.395620
v -1.851389 0.136216 2.055681
v -1.850524 -0.147190 2.055704
v -2.238339 0.135001 1.625921
v -2.237474 -0.148406 1.625944
v -2.527484 0.134078 1.125101
v -2.526619 -0.149328 1.125124
v -2.706186 0.133489 0.575109
v -2.705321 -0.149917 0.575131
v -2.766634 0.133259 -0.000019
v -2.765769 -0.150147 0.000003
v 0.277468 0.142484 -0.855294
v 0.026107 0.141723 -0.773622
v -0.476615 0.140201 -0.610280
v -0.727976 0.139440 -0.528608
v -0.727979 0.139524 0.528581
v -0.476619 0.140298 0.610254
v 0.026102 0.141845 0.773600
v 0.277462 0.142619 0.855274
v 0.432819 0.142975 -0.641472
v 0.743514 0.143957 -0.213830
v 0.898863 0.144448 -0.000009
v -0.727977 0.139461 -0.264310
v -0.727978 0.139503 0.264284
v 0.432815 0.143076 0.641453
v 0.743512 0.143991 0.213812
v -1.541396 0.136999 -0.000016
v -0.476616 0.140222 -0.345982
v 0.181459 0.142214 -0.559801
v 1.246237 0.145437 -0.905768
v 0.588163 0.143500 -0.000010
v 0.181455 0.142303 0.559780
v -0.476621 0.140366 1.465538
v -0.476618 0.140277 0.345957
v -0.476613 0.140133 -1.465564
v 1.246231 0.145580 0.905753
v -0.727113 -0.143903 0.264306
v -0.727114 -0.143882 0.528603
v -0.475754 -0.143108 0.610277
v 0.026967 -0.141561 0.773623
v 0.278327 -0.140787 0.855296
v 0.899728 -0.138958 0.000014
v 0.744379 -0.139449 -0.213808
v 0.433684 -0.140431 -0.641451
v 0.278333 -0.140923 -0.855272
v -0.727111 -0.143966 -0.528585
v -0.727112 -0.143945 -0.264288
v 0.433680 -0.140330 0.641475
v 0.744377 -0.139415 0.213834
v 0.026972 -0.141683 -0.773600
v -0.475750 -0.143205 -0.610257
v -1.540530 -0.146407 0.000007
v -0.475753 -0.143129 0.345980
v 0.182320 -0.141104 0.559802
v 1.247097 -0.137826 0.905775
v 0.589028 -0.139906 0.000013
v 0.182324 -0.141192 -0.559778
v -0.475747 -0.143273 -1.465542
v -0.475751 -0.143184 -0.345959
v -0.475756 -0.143041 1.465561
v 1.247102 -0.137969 -0.905745
vn -0.9781 -0.0030 -0.2079
vn -0.9135 -0.0028 -0.4067
vn -0.8090 -0.0025 -0.5878
vn -0.6691 -0.0021 -0.7431
vn -0.5000 -0.0016 -0.8660
vn -0.3090 -0.0010 -0.9511
vn -0.1045 -0.0004 -0.9945
vn 0.1045 0.0002 -0.9945
vn 0.3090 0.0009 -0.9511
vn 0.5000 0.0015 -0.8660
vn 0.6691 0.0020 -0.7431
vn 0.8090 0.0024 -0.5878
vn 0.9135 0.0028 -0.4067
vn 0.9781 0.0030 -0.2079
vn 1.0000 0.0031 -0.0000
vn 0.9781 0.0030 0.2079
vn 0.9135 0.0028 0.4067
vn 0.8090 0.0025 0.5878
vn 0.6691 0.0021 0.7431
vn 0.5000 0.0016 0.8660
vn 0.3090 0.0010 0.9511
vn 0.1045 0.0004 0.9945
vn -0.1045 -0.0002 0.9945
vn -0.3090 -0.0009 0.9511
vn -0.5000 -0.0015 0.8660
vn -0.6691 -0.0020 0.7431
vn -0.8090 -0.0024 0.5878
vn -0.9135 -0.0028 0.4067
vn -0.9781 -0.0030 0.2079
vn -1.0000 -0.0031 -0.0000
vn -0.0031 1.0000 -0.0001
vn 0.0031 -1.0000 0.0001
vn 0.9511 0.0029 0.3090
vn 0.8660 0.0027 0.5000
vn 0.7431 0.0023 0.6691
vn 0.5878 0.0019 0.8090
vn 0.4067 0.0013 0.9135
vn 0.9945 0.0030 0.1045
vn 0.9945 0.0030 -0.1045
vn 0.9511 0.0029 -0.3090
vn 0.8660 0.0026 -0.5000
vn 0.7431 0.0022 -0.6691
vn 0.5878 0.0017 -0.8090
vn 0.4067 0.0012 -0.9135
vn 0.2079 0.0006 -0.9781
vn -0.0000 -0.0001 -1.0000
vn -0.2079 -0.0007 -0.9781
vn -0.4067 -0.0013 -0.9135
vn -0.5878 -0.0019 -0.8090
vn -0.7431 -0.0023 -0.6691
vn -0.8660 -0.0027 -0.5000
vn -0.9511 -0.0029 -0.3090
vn -0.9945 -0.0030 -0.1045
vn -0.9945 -0.0030 0.1045
vn -0.9511 -0.0029 0.3090
vn -0.8660 -0.0026 0.5000
vn -0.7431 -0.0022 0.6691
vn -0.5878 -0.0017 0.8090
vn -0.4067 -0.0012 0.9135
vn -0.2079 -0.0006 0.9781
vn -0.0000 0.0001 1.0000
vn 0.2079 0.0007 0.9781
vt 0.524506 0.086193
vt 0.524506 0.060704
vt 0.742730 0.060704
vt 0.742730 0.086193
vt 0.524506 0.037494
vt 0.742730 0.037494
vt 0.524506 0.017578
vt 0.742730 0.017578
vt 0.524506 0.001825
vt 0.742730 0.001825
vt 0.998008 0.446085
vt 0.973524 0.446085
vt 0.973524 0.227861
vt 0.998008 0.227861
vt 0.947309 0.446085
vt 0.947309 0.227861
vt 0.920509 0.446085
vt 0.920509 0.227861
vt 0.894294 0.446085
vt 0.894294 0.227861
vt 0.869810 0.446085
vt 0.869810 0.227861
vt 0.750585 0.223869
vt 0.750585 0.208116
vt 0.968809 0.208116
vt 0.968809 0.223869
vt 0.750585 0.188200
vt 0.968809 0.188200
vt 0.750585 0.164990
vt 0.968809 0.164990
vt 0.750585 0.139501
vt 0.968809 0.139501
vt 0.750585 0.112847
vt 0.968809 0.112847
vt 0.750585 0.086193
vt 0.968809 0.086193
vt 0.750585 0.060704
vt 0.968809 0.060704
vt 0.750585 0.037495
vt 0.968809 0.037495
vt 0.750585 0.017578
vt 0.968809 0.017578
vt 0.750585 0.001825
vt 0.968809 0.001825
vt 0.735478 0.227861
vt 0.759961 0.227861
vt 0.759961 0.446085
vt 0.735478 0.446085
vt 0.786176 0.227861
vt 0.786176 0.446085
vt 0.812977 0.227861
vt 0.812977 0.446085
vt 0.839192 0.227861
vt 0.839192 0.446085
vt 0.863675 0.227861
vt 0.863675 0.446085
vt 0.524506 0.223869
vt 0.524506 0.208116
vt 0.742730 0.208116
vt 0.742730 0.223869
vt 0.524506 0.188200
vt 0.742730 0.188200
vt 0.524506 0.164990
vt 0.742730 0.164990
vt 0.524506 0.139501
vt 0.742730 0.139501
vt 0.524506 0.112847
vt 0.742730 0.112847
vt 0.496976 0.785917
vt 0.496976 0.798166
vt 0.485327 0.794381
vt 0.485327 0.782132
vt 0.462028 0.774562
vt 0.454829 0.784471
vt 0.450379 0.770777
vt 0.374985 0.746280
vt 0.443180 0.780686
vt 0.405482 0.768438
vt 0.421581 0.810414
vt 0.428781 0.800505
vt 0.462028 0.846266
vt 0.450379 0.850051
vt 0.454829 0.836357
vt 0.496976 0.834911
vt 0.485327 0.838696
vt 0.485327 0.826448
vt 0.496976 0.822663
vt 0.106802 0.023294
vt 0.085107 0.030343
vt 0.077345 0.012908
vt 0.102834 0.004626
vt 0.435221 0.030343
vt 0.413527 0.023294
vt 0.417495 0.004626
vt 0.442984 0.012908
vt 0.065353 0.041749
vt 0.054135 0.026308
vt 0.454976 0.041749
vt 0.466194 0.026308
vt 0.048401 0.057012
vt 0.034218 0.044241
vt 0.471928 0.057012
vt 0.486111 0.044241
vt 0.034993 0.075466
vt 0.018465 0.065923
vt 0.485335 0.075466
vt 0.501864 0.065923
vt 0.025716 0.096305
vt 0.007564 0.090407
vt 0.494613 0.096305
vt 0.512765 0.090407
vt 0.020973 0.118617
vt 0.001992 0.116622
vt 0.499356 0.118617
vt 0.518337 0.116622
vt 0.020973 0.141427
vt 0.001992 0.143423
vt 0.499356 0.141427
vt 0.518337 0.143423
vt 0.025716 0.163740
vt 0.007564 0.169637
vt 0.494613 0.163740
vt 0.512765 0.169637
vt 0.034993 0.184578
vt 0.018465 0.194121
vt 0.485335 0.184578
vt 0.501864 0.194121
vt 0.048401 0.203032
vt 0.034218 0.215803
vt 0.471928 0.203032
vt 0.486111 0.215803
vt 0.065353 0.218296
vt 0.054135 0.233736
vt 0.454976 0.218296
vt 0.466194 0.233736
vt 0.085107 0.229701
vt 0.077345 0.247137
vt 0.435221 0.229701
vt 0.442984 0.247136
vt 0.106802 0.236750
vt 0.102834 0.255418
vt 0.413527 0.236750
vt 0.417495 0.255418
vt 0.129487 0.239134
vt 0.129487 0.258220
vt 0.390842 0.239134
vt 0.390842 0.258220
vt 0.152173 0.236750
vt 0.156141 0.255418
vt 0.368156 0.236750
vt 0.364188 0.255418
vt 0.173867 0.229701
vt 0.181630 0.247137
vt 0.346462 0.229701
vt 0.338699 0.247136
vt 0.193622 0.218296
vt 0.204840 0.233736
vt 0.326707 0.218296
vt 0.315489 0.233736
vt 0.210573 0.203032
vt 0.224757 0.215803
vt 0.309756 0.203032
vt 0.295572 0.215803
vt 0.223981 0.184578
vt 0.240510 0.194121
vt 0.296348 0.184578
vt 0.279819 0.194121
vt 0.233259 0.163740
vt 0.251410 0.169637
vt 0.287070 0.163740
vt 0.268919 0.169637
vt 0.238002 0.141427
vt 0.256982 0.143423
vt 0.282327 0.141427
vt 0.263347 0.143423
vt 0.238002 0.118617
vt 0.256982 0.116622
vt 0.282327 0.118617
vt 0.263347 0.116622
vt 0.233259 0.096305
vt 0.251410 0.090407
vt 0.287070 0.096305
vt 0.268919 0.090407
vt 0.223981 0.075466
vt 0.240510 0.065923
vt 0.296348 0.075466
vt 0.279819 0.065923
vt 0.210573 0.057012
vt 0.224757 0.044241
vt 0.309756 0.057012
vt 0.295572 0.044241
vt 0.193622 0.041749
vt 0.204840 0.026308
vt 0.326707 0.041749
vt 0.315489 0.026308
vt 0.173867 0.030343
vt 0.181630 0.012908
vt 0.346462 0.030343
vt 0.338699 0.012908
vt 0.152173 0.023295
vt 0.156141 0.004626
vt 0.368156 0.023294
vt 0.364188 0.004626
vt 0.129487 0.020910
vt 0.129487 0.001825
vt 0.390842 0.020910
vt 0.390842 0.001825
vt 0.496976 0.706642
vt 0.485327 0.742495
vt 0.496976 0.914186
vt 0.485327 0.878334
vt 0.435980 0.810414
vt 0.428781 0.820323
vt 0.443180 0.840142
vt 0.572370 0.810414
vt 0.534673 0.810414
vt 0.374985 0.874549
vt 0.405482 0.852391
vt 0.293455 0.785917
vt 0.368849 0.810414
vt 0.331152 0.810414
vt 0.293455 0.798165
vt 0.258507 0.774562
vt 0.281806 0.782132
vt 0.281806 0.794380
vt 0.251308 0.784471
vt 0.246858 0.770777
vt 0.171464 0.746280
vt 0.239659 0.780686
vt 0.201962 0.768437
vt 0.218060 0.810414
vt 0.225260 0.800505
vt 0.225260 0.820323
vt 0.232459 0.810414
vt 0.239659 0.840142
vt 0.251308 0.836357
vt 0.246858 0.850051
vt 0.293455 0.914186
vt 0.258507 0.846266
vt 0.281806 0.878333
vt 0.293455 0.834911
vt 0.281806 0.838696
vt 0.293455 0.822663
vt 0.281806 0.826448
vt 0.293455 0.706642
vt 0.281806 0.742494
vt 0.171464 0.874548
vt 0.201962 0.852390
vt 0.684962 0.227861
vt 0.706657 0.227861
vt 0.706657 0.446085
vt 0.684962 0.446085
vt 0.665208 0.227861
vt 0.665208 0.446085
vt 0.648256 0.227861
vt 0.648256 0.446085
vt 0.634849 0.227861
vt 0.634849 0.446085
vt 0.607875 0.227861
vt 0.628713 0.227861
vt 0.628713 0.446085
vt 0.607875 0.446085
vt 0.729342 0.227861
vt 0.729342 0.446085
vt 0.601739 0.446085
vt 0.526345 0.446085
vt 0.526345 0.227861
vt 0.601739 0.227861
vt 0.444815 0.262211
vt 0.520209 0.262211
vt 0.520209 0.480435
vt 0.444815 0.480435
vt 0.344186 0.262211
vt 0.366871 0.262211
vt 0.366871 0.480435
vt 0.344186 0.480435
vt 0.388566 0.262211
vt 0.388566 0.480435
vt 0.408320 0.262211
vt 0.408320 0.480435
vt 0.425272 0.262211
vt 0.425272 0.480435
vt 0.438680 0.262211
vt 0.438680 0.480435
vt 0.338050 0.480435
vt 0.317212 0.480435
vt 0.317212 0.262211
vt 0.338050 0.262211
vt 0.231802 0.262211
vt 0.311077 0.262211
vt 0.311077 0.480435
vt 0.231802 0.480435
vt 0.187970 0.262211
vt 0.225667 0.262211
vt 0.225667 0.480435
vt 0.187970 0.480435
vt 0.181834 0.480435
vt 0.144137 0.480435
vt 0.144137 0.262211
vt 0.181834 0.262211
vt 0.113505 0.262211
vt 0.138002 0.262211
vt 0.138002 0.480435
vt 0.113505 0.480435
vt 0.123983 0.702651
vt 0.101671 0.702651
vt 0.101671 0.484427
vt 0.123983 0.484427
vt 0.078860 0.702651
vt 0.078860 0.484427
vt 0.056548 0.702651
vt 0.056548 0.484427
vt 0.035710 0.702651
vt 0.035710 0.484427
vt 0.017255 0.702651
vt 0.017255 0.484427
vt 0.001992 0.702651
vt 0.001992 0.484427
vt 0.206212 0.484427
vt 0.252809 0.484427
vt 0.252809 0.702651
vt 0.206212 0.702651
vt 0.130818 0.484427
vt 0.130818 0.702651
vt 0.259449 0.484427
vt 0.279203 0.484427
vt 0.279203 0.702651
vt 0.259449 0.702651
vt 0.300897 0.484427
vt 0.300897 0.702651
vt 0.323583 0.484427
vt 0.323583 0.702651
vt 0.346269 0.484427
vt 0.346269 0.702651
vt 0.367963 0.484427
vt 0.367963 0.702651
vt 0.458061 0.484427
vt 0.522195 0.484427
vt 0.522195 0.702651
vt 0.458061 0.702651
vt 0.393926 0.484427
vt 0.393926 0.702651
vt 0.566101 0.668300
vt 0.528404 0.668300
vt 0.528404 0.450076
vt 0.566101 0.450076
vt 0.605297 0.450076
vt 0.585479 0.450076
vt 0.585479 0.668300
vt 0.605297 0.668300
vt 0.573230 0.450076
vt 0.573230 0.668300
vt 0.632028 0.450076
vt 0.612209 0.450076
vt 0.612209 0.668300
vt 0.632028 0.668300
vt 0.644276 0.450076
vt 0.644276 0.668300
vt 0.651188 0.450076
vt 0.688885 0.450076
vt 0.688885 0.668300
vt 0.651188 0.668300
vt 0.714862 0.668300
vt 0.696014 0.668300
vt 0.696014 0.450076
vt 0.714862 0.450076
vt 0.745360 0.668300
vt 0.745360 0.450076
vt 0.752534 0.450076
vt 0.784601 0.450076
vt 0.784601 0.668300
vt 0.752534 0.668300
vt 0.810361 0.450076
vt 0.840859 0.450076
vt 0.840859 0.668300
vt 0.810361 0.668300
vt 0.791513 0.450076
vt 0.791513 0.668300
vt 0.848032 0.450076
vt 0.871330 0.450076
vt 0.871330 0.668300
vt 0.848032 0.668300
vt 0.879215 0.450076
vt 0.918853 0.450076
vt 0.918853 0.668300
vt 0.879215 0.668300
vt 0.925990 0.450076
vt 0.958058 0.450076
vt 0.958058 0.668300
vt 0.925990 0.668300
vt 0.988268 0.668300
vt 0.964969 0.668300
vt 0.964969 0.450076
vt 0.988268 0.450076
vt 0.965941 0.672292
vt 0.998008 0.672292
vt 0.998008 0.890516
vt 0.965941 0.890516
vt 0.880531 0.672292
vt 0.959806 0.672292
vt 0.959806 0.890516
vt 0.880531 0.890516
vt 0.834758 0.672292
vt 0.874396 0.672292
vt 0.874396 0.890516
vt 0.834758 0.890516
vt 0.782027 0.890516
vt 0.706632 0.890516
vt 0.706632 0.672292
vt 0.782027 0.672292
vt 0.828623 0.890516
vt 0.828623 0.672292
vt 0.387718 0.484427
vt 0.387718 0.702651
vt 0.578506 0.672292
vt 0.593769 0.672292
vt 0.593769 0.890516
vt 0.578506 0.890516
vt 0.612223 0.672292
vt 0.612223 0.890516
vt 0.633062 0.672292
vt 0.633062 0.890516
vt 0.655374 0.672292
vt 0.655374 0.890516
vt 0.678184 0.672292
vt 0.678184 0.890516
vt 0.700497 0.672292
vt 0.700497 0.890516
s 1
usemtl Material.001
f 61/1/1 62/2/2 63/3/2 64/4/1
f 62/2/2 65/5/3 66/6/3 63/3/2
f 65/5/3 67/7/4 68/8/4 66/6/3
f 67/7/4 69/9/5 70/10/5 68/8/4
f 69/11/5 71/12/6 72/13/6 70/14/5
f 71/12/6 73/15/7 74/16/7 72/13/6
f 73/15/7 75/17/8 76/18/8 74/16/7
f 75/17/8 77/19/9 78/20/9 76/18/8
f 77/19/9 79/21/10 80/22/10 78/20/9
f 79/23/10 81/24/11 82/25/11 80/26/10
f 81/24/11 83/27/12 84/28/12 82/25/11
f 83/27/12 85/29/13 86/30/13 84/28/12
f 85/29/13 87/31/14 88/32/14 86/30/13
f 87/31/14 89/33/15 90/34/15 88/32/14
f 89/33/15 91/35/16 92/36/16 90/34/15
f 91/35/16 93/37/17 94/38/17 92/36/16
f 93/37/17 95/39/18 96/40/18 94/38/17
f 95/39/18 97/41/19 98/42/19 96/40/18
f 97/41/19 99/43/20 100/44/20 98/42/19
f 99/45/20 101/46/21 102/47/21 100/48/20
f 101/46/21 103/49/22 104/50/22 102/47/21
f 103/49/22 105/51/23 106/52/23 104/50/22
f 105/51/23 107/53/24 108/54/24 106/52/23
f 107/53/24 109/55/25 110/56/25 108/54/24
f 109/57/25 111/58/26 112/59/26 110/60/25
f 111/58/26 113/61/27 114/62/27 112/59/26
f 113/61/27 115/63/28 116/64/28 114/62/27
f 115/63/28 117/65/29 118/66/29 116/64/28
f 117/65/29 119/67/30 120/68/30 118/66/29
f 119/67/30 61/1/1 64/4/1 120/68/30
f 124/69/31 132/70/31 137/71/31
f 123/72/31 124/69/31 137/71/31
f 122/73/31 123/72/31 137/71/31 138/74/31
f 121/75/31 122/73/31 138/74/31
f 12/76/31 121/75/31 129/77/31 139/78/31
f 131/79/31 12/76/31 139/78/31 130/80/31
f 127/81/31 128/82/31 141/83/31
f 125/84/31 126/85/31 143/86/31
f 132/70/31 133/87/31 143/86/31 137/71/31
f 1/88/31 2/89/31 62/90/31 61/91/31
f 32/92/32 31/93/32 64/94/32 63/95/32
f 2/89/31 3/96/31 65/97/31 62/90/31
f 33/98/32 32/92/32 63/95/32 66/99/32
f 3/96/31 4/100/31 67/101/31 65/97/31
f 34/102/32 33/98/32 66/99/32 68/103/32
f 4/100/31 5/104/31 69/105/31 67/101/31
f 35/106/32 34/102/32 68/103/32 70/107/32
f 5/104/31 6/108/31 71/109/31 69/105/31
f 36/110/32 35/106/32 70/107/32 72/111/32
f 6/108/31 7/112/31 73/113/31 71/109/31
f 37/114/32 36/110/32 72/111/32 74/115/32
f 7/112/31 8/116/31 75/117/31 73/113/31
f 38/118/32 37/114/32 74/115/32 76/119/32
f 8/116/31 9/120/31 77/121/31 75/117/31
f 39/122/32 38/118/32 76/119/32 78/123/32
f 9/120/31 10/124/31 79/125/31 77/121/31
f 40/126/32 39/122/32 78/123/32 80/127/32
f 10/124/31 11/128/31 81/129/31 79/125/31
f 41/130/32 40/126/32 80/127/32 82/131/32
f 11/128/31 12/132/31 83/133/31 81/129/31
f 42/134/32 41/130/32 82/131/32 84/135/32
f 12/132/31 13/136/31 85/137/31 83/133/31
f 43/138/32 42/134/32 84/135/32 86/139/32
f 13/136/31 14/140/31 87/141/31 85/137/31
f 44/142/32 43/138/32 86/139/32 88/143/32
f 14/140/31 15/144/31 89/145/31 87/141/31
f 45/146/32 44/142/32 88/143/32 90/147/32
f 15/144/31 16/148/31 91/149/31 89/145/31
f 46/150/32 45/146/32 90/147/32 92/151/32
f 16/148/31 17/152/31 93/153/31 91/149/31
f 47/154/32 46/150/32 92/151/32 94/155/32
f 17/152/31 18/156/31 95/157/31 93/153/31
f 48/158/32 47/154/32 94/155/32 96/159/32
f 18/156/31 19/160/31 97/161/31 95/157/31
f 49/162/32 48/158/32 96/159/32 98/163/32
f 19/160/31 20/164/31 99/165/31 97/161/31
f 50/166/32 49/162/32 98/163/32 100/167/32
f 20/164/31 21/168/31 101/169/31 99/165/31
f 51/170/32 50/166/32 100/167/32 102/171/32
f 21/168/31 22/172/31 103/173/31 101/169/31
f 52/174/32 51/170/32 102/171/32 104/175/32
f 22/172/31 23/176/31 105/177/31 103/173/31
f 53/178/32 52/174/32 104/175/32 106/179/32
f 23/176/31 24/180/31 107/181/31 105/177/31
f 54/182/32 53/178/32 106/179/32 108/183/32
f 24/180/31 25/184/31 109/185/31 107/181/31
f 55/186/32 54/182/32 108/183/32 110/187/32
f 25/184/31 26/188/31 111/189/31 109/185/31
f 56/190/32 55/186/32 110/187/32 112/191/32
f 26/188/31 27/192/31 113/193/31 111/189/31
f 57/194/32 56/190/32 112/191/32 114/195/32
f 27/192/31 28/196/31 115/197/31 113/193/31
f 58/198/32 57/194/32 114/195/32 116/199/32
f 28/196/31 29/200/31 117/201/31 115/197/31
f 59/202/32 58/198/32 116/199/32 118/203/32
f 29/200/31 30/204/31 119/205/31 117/201/31
f 60/206/32 59/202/32 118/203/32 120/207/32
f 30/204/31 1/88/31 61/91/31 119/205/31
f 31/93/32 60/206/32 120/207/32 64/94/32
f 6/208/31 124/69/31 123/72/31 144/209/31
f 125/84/31 24/210/31 142/211/31 126/85/31
f 24/210/31 128/82/31 127/81/31 142/211/31
f 121/75/31 6/208/31 144/209/31 122/73/31
f 129/77/31 121/75/31 138/74/31
f 130/80/31 129/77/31 138/74/31 140/212/31
f 131/79/31 130/80/31 140/212/31
f 135/213/31 131/79/31 140/212/31
f 134/214/31 135/213/31 140/212/31 141/83/31
f 124/69/31 30/215/31 136/216/31 132/70/31
f 18/217/31 131/79/31 135/213/31 145/218/31
f 30/215/31 125/84/31 133/87/31 136/216/31
f 133/87/31 125/84/31 143/86/31
f 126/85/31 127/81/31 141/83/31 143/86/31
f 128/82/31 134/214/31 141/83/31
f 128/82/31 18/217/31 145/218/31 134/214/31
f 147/219/32 60/220/32 161/221/32 146/222/32
f 149/223/32 148/224/32 162/225/32 163/226/32
f 150/227/32 149/223/32 163/226/32
f 48/228/32 150/227/32 157/229/32 164/230/32
f 151/231/32 48/228/32 164/230/32 158/232/32
f 152/233/32 151/231/32 165/234/32
f 153/235/32 152/233/32 165/234/32 166/236/32
f 154/237/32 153/235/32 166/236/32
f 36/238/32 154/237/32 159/239/32 167/240/32
f 155/241/32 36/238/32 167/240/32 160/242/32
f 156/243/32 155/241/32 168/244/32
f 146/222/32 156/243/32 168/244/32 162/225/32
f 54/245/32 147/219/32 148/224/32 169/246/32
f 150/227/32 54/245/32 169/246/32 149/223/32
f 157/229/32 150/227/32 163/226/32
f 158/232/32 157/229/32 163/226/32 165/234/32
f 151/231/32 158/232/32 165/234/32
f 42/247/32 151/231/32 152/233/32 170/248/32
f 154/237/32 42/247/32 170/248/32 153/235/32
f 159/239/32 154/237/32 166/236/32
f 160/242/32 159/239/32 166/236/32 168/244/32
f 155/241/32 160/242/32 168/244/32
f 60/220/32 155/241/32 156/243/32 161/221/32
f 148/224/32 147/219/32 162/225/32
f 147/219/32 146/222/32 162/225/32
f 2/249/33 1/250/33 31/251/33 32/252/33
f 3/253/34 2/249/34 32/252/34 33/254/34
f 4/255/35 3/253/35 33/254/35 34/256/35
f 5/257/36 4/255/36 34/256/36 35/258/36
f 6/259/37 5/260/37 35/261/37 36/262/37
f 1/250/38 30/263/38 60/264/38 31/251/38
f 30/265/6 124/266/6 155/267/6 60/268/6
f 125/269/24 30/270/24 60/271/24 147/272/24
f 30/273/39 29/274/39 59/275/39 60/276/39
f 29/274/40 28/277/40 58/278/40 59/275/40
f 28/277/41 27/279/41 57/280/41 58/278/41
f 27/279/42 26/281/42 56/282/42 57/280/42
f 26/281/43 25/283/43 55/284/43 56/282/43
f 25/285/44 24/286/44 54/287/44 55/288/44
f 24/289/30 125/290/30 147/291/30 54/292/30
f 132/293/21 136/294/21 161/295/21 156/296/21
f 136/297/9 133/298/9 146/299/9 161/300/9
f 133/301/30 132/302/30 156/303/30 146/304/30
f 24/305/45 23/306/45 53/307/45 54/308/45
f 23/306/46 22/309/46 52/310/46 53/307/46
f 22/309/47 21/311/47 51/312/47 52/310/47
f 21/311/48 20/313/48 50/314/48 51/312/48
f 20/313/49 19/315/49 49/316/49 50/314/49
f 19/315/50 18/317/50 48/318/50 49/316/50
f 128/319/18 24/320/18 54/321/18 150/322/18
f 18/323/24 128/319/24 150/322/24 48/324/24
f 18/325/51 17/326/51 47/327/51 48/328/51
f 17/326/52 16/329/52 46/330/52 47/327/52
f 16/329/53 15/331/53 45/332/53 46/330/53
f 15/331/54 14/333/54 44/334/54 45/332/54
f 14/333/55 13/335/55 43/336/55 44/334/55
f 131/337/12 18/338/12 48/339/12 151/340/12
f 12/341/18 131/337/18 151/340/18 42/342/18
f 134/343/9 145/344/9 164/345/9 157/346/9
f 135/347/18 134/348/18 157/349/18 158/350/18
f 145/351/27 135/347/27 158/350/27 164/352/27
f 129/353/12 130/354/12 152/355/12 153/356/12
f 130/354/3 139/357/3 170/358/3 152/355/3
f 139/359/21 129/360/21 153/361/21 170/362/21
f 141/363/3 140/364/3 165/365/3 163/366/3
f 143/367/9 141/363/9 163/366/9 162/368/9
f 137/369/15 143/370/15 162/371/15 168/372/15
f 138/373/21 137/374/21 168/375/21 166/376/21
f 140/377/27 138/373/27 166/376/27 165/378/27
f 127/379/24 126/380/24 148/381/24 149/382/24
f 126/383/15 142/384/15 169/385/15 148/386/15
f 142/387/3 127/388/3 149/389/3 169/390/3
f 123/391/6 122/392/6 159/393/6 160/394/6
f 122/395/27 144/396/27 167/397/27 159/398/27
f 124/399/30 6/400/30 36/401/30 155/402/30
f 144/403/15 123/404/15 160/405/15 167/406/15
f 121/407/6 12/408/6 42/409/6 154/410/6
f 6/411/12 121/407/12 154/410/12 36/412/12
f 13/335/56 12/413/56 42/414/56 43/336/56
f 12/415/57 11/416/57 41/417/57 42/418/57
f 11/416/58 10/419/58 40/420/58 41/417/58
f 10/419/59 9/421/59 39/422/59 40/420/59
f 9/421/60 8/423/60 38/424/60 39/422/60
f 8/423/61 7/425/61 37/426/61 38/424/61
f 7/425/62 6/427/62 36/428/62 37/426/62
